<?xml version="1.0" encoding="UTF-8"?>
<!--Generator: Apple Native CoreSVG 123-->
<!DOCTYPE svg
PUBLIC "-//W3C//DTD SVG 1.1//EN"
       "http://www.w3.org/Graphics/SVG/1.1/DTD/svg11.dtd">
<svg version="1.1" xmlns="http://www.w3.org/2000/svg" xmlns:xlink="http://www.w3.org/1999/xlink" width="3300" height="2200">
 <!--glyph: "uni1004C3.medium", point size: 100.000000, font version: "Version 15.0d7e11", template writer version: "5"-->
 <g id="Notes">
  <rect height="2200" id="artboard" style="fill:white;opacity:1" width="3300" x="0" y="0"/>
  <line id="" style="fill:none;stroke:black;opacity:1;stroke-width:0.5;" x1="263" x2="3036" y1="292" y2="292"/>
  <text style="stroke:none;fill:black;font-family:-apple-system,&quot;SF Pro Display&quot;,&quot;SF Pro Text&quot;,Helvetica,sans-serif;font-weight:bold;" transform="matrix(1 0 0 1 263 322)">Weight/Scale Variations</text>
  <text style="stroke:none;fill:black;font-family:-apple-system,&quot;SF Pro Display&quot;,&quot;SF Pro Text&quot;,Helvetica,sans-serif;text-anchor:middle;" transform="matrix(1 0 0 1 559.711 322)">Ultralight</text>
  <text style="stroke:none;fill:black;font-family:-apple-system,&quot;SF Pro Display&quot;,&quot;SF Pro Text&quot;,Helvetica,sans-serif;text-anchor:middle;" transform="matrix(1 0 0 1 856.422 322)">Thin</text>
  <text style="stroke:none;fill:black;font-family:-apple-system,&quot;SF Pro Display&quot;,&quot;SF Pro Text&quot;,Helvetica,sans-serif;text-anchor:middle;" transform="matrix(1 0 0 1 1153.13 322)">Light</text>
  <text style="stroke:none;fill:black;font-family:-apple-system,&quot;SF Pro Display&quot;,&quot;SF Pro Text&quot;,Helvetica,sans-serif;text-anchor:middle;" transform="matrix(1 0 0 1 1449.84 322)">Regular</text>
  <text style="stroke:none;fill:black;font-family:-apple-system,&quot;SF Pro Display&quot;,&quot;SF Pro Text&quot;,Helvetica,sans-serif;text-anchor:middle;" transform="matrix(1 0 0 1 1746.56 322)">Medium</text>
  <text style="stroke:none;fill:black;font-family:-apple-system,&quot;SF Pro Display&quot;,&quot;SF Pro Text&quot;,Helvetica,sans-serif;text-anchor:middle;" transform="matrix(1 0 0 1 2043.27 322)">Semibold</text>
  <text style="stroke:none;fill:black;font-family:-apple-system,&quot;SF Pro Display&quot;,&quot;SF Pro Text&quot;,Helvetica,sans-serif;text-anchor:middle;" transform="matrix(1 0 0 1 2339.98 322)">Bold</text>
  <text style="stroke:none;fill:black;font-family:-apple-system,&quot;SF Pro Display&quot;,&quot;SF Pro Text&quot;,Helvetica,sans-serif;text-anchor:middle;" transform="matrix(1 0 0 1 2636.69 322)">Heavy</text>
  <text style="stroke:none;fill:black;font-family:-apple-system,&quot;SF Pro Display&quot;,&quot;SF Pro Text&quot;,Helvetica,sans-serif;text-anchor:middle;" transform="matrix(1 0 0 1 2933.4 322)">Black</text>
  <line id="" style="fill:none;stroke:black;opacity:1;stroke-width:0.5;" x1="263" x2="3036" y1="1903" y2="1903"/>
  <g id="" transform="matrix(1 0 0 1 263 1933)">
   <path d="M 9.24805 0.830078 C 13.5547 0.830078 17.1387 -2.74414 17.1387 -7.05078 C 17.1387 -11.3574 13.5449 -14.9316 9.23828 -14.9316 C 4.94141 -14.9316 1.36719 -11.3574 1.36719 -7.05078 C 1.36719 -2.74414 4.95117 0.830078 9.24805 0.830078 Z M 9.24805 -0.654297 C 5.70312 -0.654297 2.87109 -3.49609 2.87109 -7.05078 C 2.87109 -10.6055 5.69336 -13.4473 9.23828 -13.4473 C 12.793 -13.4473 15.6348 -10.6055 15.6445 -7.05078 C 15.6543 -3.49609 12.8027 -0.654297 9.24805 -0.654297 Z M 9.22852 -3.42773 C 9.69727 -3.42773 9.9707 -3.74023 9.9707 -4.25781 L 9.9707 -6.31836 L 12.1973 -6.31836 C 12.6953 -6.31836 13.0371 -6.57227 13.0371 -7.04102 C 13.0371 -7.51953 12.7148 -7.7832 12.1973 -7.7832 L 9.9707 -7.7832 L 9.9707 -10.0098 C 9.9707 -10.5273 9.69727 -10.8496 9.22852 -10.8496 C 8.75977 -10.8496 8.50586 -10.5078 8.50586 -10.0098 L 8.50586 -7.7832 L 6.29883 -7.7832 C 5.78125 -7.7832 5.44922 -7.51953 5.44922 -7.04102 C 5.44922 -6.57227 5.80078 -6.31836 6.29883 -6.31836 L 8.50586 -6.31836 L 8.50586 -4.25781 C 8.50586 -3.75977 8.75977 -3.42773 9.22852 -3.42773 Z"/>
  </g>
  <g id="" transform="matrix(1 0 0 1 281.506 1933)">
   <path d="M 11.709 2.91016 C 17.1582 2.91016 21.6699 -1.60156 21.6699 -7.05078 C 21.6699 -12.4902 17.1484 -17.0117 11.6992 -17.0117 C 6.25977 -17.0117 1.74805 -12.4902 1.74805 -7.05078 C 1.74805 -1.60156 6.26953 2.91016 11.709 2.91016 Z M 11.709 1.25 C 7.09961 1.25 3.41797 -2.44141 3.41797 -7.05078 C 3.41797 -11.6504 7.08984 -15.3516 11.6992 -15.3516 C 16.3086 -15.3516 20 -11.6504 20.0098 -7.05078 C 20.0195 -2.44141 16.3184 1.25 11.709 1.25 Z M 11.6895 -2.41211 C 12.207 -2.41211 12.5195 -2.77344 12.5195 -3.33984 L 12.5195 -6.23047 L 15.5762 -6.23047 C 16.123 -6.23047 16.5039 -6.51367 16.5039 -7.03125 C 16.5039 -7.55859 16.1426 -7.86133 15.5762 -7.86133 L 12.5195 -7.86133 L 12.5195 -10.9277 C 12.5195 -11.5039 12.207 -11.8555 11.6895 -11.8555 C 11.1719 -11.8555 10.8789 -11.4844 10.8789 -10.9277 L 10.8789 -7.86133 L 7.83203 -7.86133 C 7.26562 -7.86133 6.89453 -7.55859 6.89453 -7.03125 C 6.89453 -6.51367 7.28516 -6.23047 7.83203 -6.23047 L 10.8789 -6.23047 L 10.8789 -3.33984 C 10.8789 -2.79297 11.1719 -2.41211 11.6895 -2.41211 Z"/>
  </g>
  <g id="" transform="matrix(1 0 0 1 304.924 1933)">
   <path d="M 14.9707 5.67383 C 21.9336 5.67383 27.6953 -0.078125 27.6953 -7.04102 C 27.6953 -14.0039 21.9238 -19.7559 14.9609 -19.7559 C 8.00781 -19.7559 2.25586 -14.0039 2.25586 -7.04102 C 2.25586 -0.078125 8.01758 5.67383 14.9707 5.67383 Z M 14.9707 3.85742 C 8.93555 3.85742 4.08203 -1.00586 4.08203 -7.04102 C 4.08203 -13.0762 8.92578 -17.9395 14.9609 -17.9395 C 21.0059 -17.9395 25.8594 -13.0762 25.8691 -7.04102 C 25.8789 -1.00586 21.0156 3.85742 14.9707 3.85742 Z M 14.9512 -1.06445 C 15.5176 -1.06445 15.8691 -1.45508 15.8691 -2.06055 L 15.8691 -6.13281 L 20.1074 -6.13281 C 20.6934 -6.13281 21.1133 -6.46484 21.1133 -7.02148 C 21.1133 -7.59766 20.7227 -7.93945 20.1074 -7.93945 L 15.8691 -7.93945 L 15.8691 -12.1875 C 15.8691 -12.8027 15.5176 -13.1934 14.9512 -13.1934 C 14.3848 -13.1934 14.0625 -12.7832 14.0625 -12.1875 L 14.0625 -7.93945 L 9.83398 -7.93945 C 9.21875 -7.93945 8.80859 -7.59766 8.80859 -7.02148 C 8.80859 -6.46484 9.23828 -6.13281 9.83398 -6.13281 L 14.0625 -6.13281 L 14.0625 -2.06055 C 14.0625 -1.47461 14.3848 -1.06445 14.9512 -1.06445 Z"/>
  </g>
  <text style="stroke:none;fill:black;font-family:-apple-system,&quot;SF Pro Display&quot;,&quot;SF Pro Text&quot;,Helvetica,sans-serif;font-weight:bold;" transform="matrix(1 0 0 1 263 1953)">Design Variations</text>
  <text style="stroke:none;fill:black;font-family:-apple-system,&quot;SF Pro Display&quot;,&quot;SF Pro Text&quot;,Helvetica,sans-serif;" transform="matrix(1 0 0 1 263 1971)">Symbols are supported in up to nine weights and three scales.</text>
  <text style="stroke:none;fill:black;font-family:-apple-system,&quot;SF Pro Display&quot;,&quot;SF Pro Text&quot;,Helvetica,sans-serif;" transform="matrix(1 0 0 1 263 1989)">For optimal layout with text and other symbols, vertically align</text>
  <text style="stroke:none;fill:black;font-family:-apple-system,&quot;SF Pro Display&quot;,&quot;SF Pro Text&quot;,Helvetica,sans-serif;" transform="matrix(1 0 0 1 263 2007)">symbols with the adjacent text.</text>
  <rect height="14" id="" style="fill:#00AEEF;stroke:none;opacity:0.4;" width="3" x="776" y="1919"/>
  <g id="" transform="matrix(1 0 0 1 779 1933)">
   <path d="M 10.5273 0 L 12.373 0 L 7.17773 -14.0918 L 5.43945 -14.0918 L 0.244141 0 L 2.08984 0 L 3.50586 -4.0332 L 9.11133 -4.0332 Z M 6.2793 -11.9531 L 6.33789 -11.9531 L 8.59375 -5.52734 L 4.02344 -5.52734 Z"/>
  </g>
  <rect height="14" id="" style="fill:#00AEEF;stroke:none;opacity:0.4;" width="3" x="791.617" y="1919"/>
  <text style="stroke:none;fill:black;font-family:-apple-system,&quot;SF Pro Display&quot;,&quot;SF Pro Text&quot;,Helvetica,sans-serif;font-weight:bold;" transform="matrix(1 0 0 1 776 1953)">Margins</text>
  <text style="stroke:none;fill:black;font-family:-apple-system,&quot;SF Pro Display&quot;,&quot;SF Pro Text&quot;,Helvetica,sans-serif;" transform="matrix(1 0 0 1 776 1971)">Leading and trailing margins on the left and right side of each symbol</text>
  <text style="stroke:none;fill:black;font-family:-apple-system,&quot;SF Pro Display&quot;,&quot;SF Pro Text&quot;,Helvetica,sans-serif;" transform="matrix(1 0 0 1 776 1989)">can be adjusted by modifying the width of the blue rectangles.</text>
  <text style="stroke:none;fill:black;font-family:-apple-system,&quot;SF Pro Display&quot;,&quot;SF Pro Text&quot;,Helvetica,sans-serif;" transform="matrix(1 0 0 1 776 2007)">Modifications are automatically applied proportionally to all</text>
  <text style="stroke:none;fill:black;font-family:-apple-system,&quot;SF Pro Display&quot;,&quot;SF Pro Text&quot;,Helvetica,sans-serif;" transform="matrix(1 0 0 1 776 2025)">scales and weights.</text>
  <g id="" transform="matrix(1 0 0 1 1289 1933)">
   <path d="M 2.83203 3.11523 L 4.375 4.6582 C 5.22461 5.48828 6.19141 5.41992 7.06055 4.46289 L 17.2754 -6.66016 C 17.7051 -6.36719 18.0957 -6.37695 18.5645 -6.47461 L 19.6094 -6.68945 L 20.3027 -5.99609 L 20.2539 -5.47852 C 20.1855 -4.95117 20.3516 -4.53125 20.8496 -4.0332 L 21.6602 -3.22266 C 22.168 -2.71484 22.8223 -2.68555 23.3008 -3.16406 L 26.5527 -6.41602 C 27.0312 -6.89453 27.0117 -7.54883 26.5039 -8.05664 L 25.6836 -8.87695 C 25.1855 -9.375 24.7754 -9.55078 24.2383 -9.47266 L 23.7109 -9.41406 L 23.0566 -10.0781 L 23.3398 -11.2207 C 23.4863 -11.7871 23.3398 -12.2559 22.7148 -12.8613 L 20.3027 -15.2539 C 16.7578 -18.7793 12.2266 -18.6719 9.11133 -15.5371 C 8.69141 -15.1074 8.64258 -14.5215 8.91602 -14.0918 C 9.15039 -13.7207 9.62891 -13.4961 10.2734 -13.6621 C 11.7871 -14.043 13.3008 -13.9258 14.7852 -12.9199 L 14.1602 -11.3379 C 13.9258 -10.752 13.9453 -10.2734 14.1797 -9.83398 L 3.01758 0.439453 C 2.08008 1.30859 1.97266 2.25586 2.83203 3.11523 Z M 10.6738 -15.1465 C 13.3398 -17.1387 16.6504 -16.8262 19.0527 -14.4141 L 21.6797 -11.8066 C 21.9141 -11.5723 21.9434 -11.3867 21.8848 -11.0938 L 21.5039 -9.53125 L 23.0762 -7.95898 L 24.043 -8.04688 C 24.3262 -8.07617 24.4141 -8.05664 24.6387 -7.83203 L 25.2637 -7.20703 L 22.5098 -4.46289 L 21.8848 -5.07812 C 21.6602 -5.30273 21.6406 -5.40039 21.6699 -5.68359 L 21.7578 -6.64062 L 20.1953 -8.20312 L 18.5742 -7.89062 C 18.291 -7.83203 18.1445 -7.83203 17.9102 -8.07617 L 15.7324 -10.2539 C 15.5078 -10.4883 15.4785 -10.625 15.6055 -10.9473 L 16.5527 -13.2227 C 14.9512 -14.7559 12.8418 -15.6055 10.8008 -14.9512 C 10.7129 -14.9219 10.6445 -14.9414 10.6152 -14.9805 C 10.5859 -15.0293 10.5859 -15.0781 10.6738 -15.1465 Z M 4.10156 2.41211 C 3.61328 1.91406 3.78906 1.61133 4.12109 1.30859 L 15.0781 -8.80859 L 16.3086 -7.57812 L 6.15234 3.34961 C 5.84961 3.68164 5.46875 3.7793 5.06836 3.37891 Z"/>
  </g>
  <text style="stroke:none;fill:black;font-family:-apple-system,&quot;SF Pro Display&quot;,&quot;SF Pro Text&quot;,Helvetica,sans-serif;font-weight:bold;" transform="matrix(1 0 0 1 1289 1953)">Exporting</text>
  <text style="stroke:none;fill:black;font-family:-apple-system,&quot;SF Pro Display&quot;,&quot;SF Pro Text&quot;,Helvetica,sans-serif;" transform="matrix(1 0 0 1 1289 1971)">Symbols should be outlined when exporting to ensure the</text>
  <text style="stroke:none;fill:black;font-family:-apple-system,&quot;SF Pro Display&quot;,&quot;SF Pro Text&quot;,Helvetica,sans-serif;" transform="matrix(1 0 0 1 1289 1989)">design is preserved when submitting to Xcode.</text>
  <text id="template-version" style="stroke:none;fill:black;font-family:-apple-system,&quot;SF Pro Display&quot;,&quot;SF Pro Text&quot;,Helvetica,sans-serif;text-anchor:end;" transform="matrix(1 0 0 1 3036 1933)">Template v.1.0</text>
  <text style="stroke:none;fill:black;font-family:-apple-system,&quot;SF Pro Display&quot;,&quot;SF Pro Text&quot;,Helvetica,sans-serif;text-anchor:end;" transform="matrix(1 0 0 1 3036 1951)">Generated from arrowtriangle.down</text>
  <text style="stroke:none;fill:black;font-family:-apple-system,&quot;SF Pro Display&quot;,&quot;SF Pro Text&quot;,Helvetica,sans-serif;text-anchor:end;" transform="matrix(1 0 0 1 3036 1969)">Typeset at 100 points</text>
  <text style="stroke:none;fill:black;font-family:-apple-system,&quot;SF Pro Display&quot;,&quot;SF Pro Text&quot;,Helvetica,sans-serif;" transform="matrix(1 0 0 1 263 726)">Small</text>
  <text style="stroke:none;fill:black;font-family:-apple-system,&quot;SF Pro Display&quot;,&quot;SF Pro Text&quot;,Helvetica,sans-serif;" transform="matrix(1 0 0 1 263 1156)">Medium</text>
  <text style="stroke:none;fill:black;font-family:-apple-system,&quot;SF Pro Display&quot;,&quot;SF Pro Text&quot;,Helvetica,sans-serif;" transform="matrix(1 0 0 1 263 1586)">Large</text>
 </g>
 <g id="Guides">
  <g id="H-reference" style="fill:#27AAE1;stroke:none;" transform="matrix(1 0 0 1 339 696)">
   <path d="M 54.9316 0 L 57.666 0 L 30.5664 -70.459 L 28.0762 -70.459 L 0.976562 0 L 3.66211 0 L 12.9395 -24.4629 L 45.7031 -24.4629 Z M 29.1992 -67.0898 L 29.4434 -67.0898 L 44.8242 -26.709 L 13.8184 -26.709 Z"/>
  </g>
  <line id="Baseline-S" style="fill:none;stroke:#27AAE1;opacity:1;stroke-width:0.577;" x1="263" x2="3036" y1="696" y2="696"/>
  <line id="Capline-S" style="fill:none;stroke:#27AAE1;opacity:1;stroke-width:0.577;" x1="263" x2="3036" y1="625.541" y2="625.541"/>
  <g id="H-reference" style="fill:#27AAE1;stroke:none;" transform="matrix(1 0 0 1 339 1126)">
   <path d="M 54.9316 0 L 57.666 0 L 30.5664 -70.459 L 28.0762 -70.459 L 0.976562 0 L 3.66211 0 L 12.9395 -24.4629 L 45.7031 -24.4629 Z M 29.1992 -67.0898 L 29.4434 -67.0898 L 44.8242 -26.709 L 13.8184 -26.709 Z"/>
  </g>
  <line id="Baseline-M" style="fill:none;stroke:#27AAE1;opacity:1;stroke-width:0.577;" x1="263" x2="3036" y1="1126" y2="1126"/>
  <line id="Capline-M" style="fill:none;stroke:#27AAE1;opacity:1;stroke-width:0.577;" x1="263" x2="3036" y1="1055.54" y2="1055.54"/>
  <g id="H-reference" style="fill:#27AAE1;stroke:none;" transform="matrix(1 0 0 1 339 1556)">
   <path d="M 54.9316 0 L 57.666 0 L 30.5664 -70.459 L 28.0762 -70.459 L 0.976562 0 L 3.66211 0 L 12.9395 -24.4629 L 45.7031 -24.4629 Z M 29.1992 -67.0898 L 29.4434 -67.0898 L 44.8242 -26.709 L 13.8184 -26.709 Z"/>
  </g>
  <line id="Baseline-L" style="fill:none;stroke:#27AAE1;opacity:1;stroke-width:0.577;" x1="263" x2="3036" y1="1556" y2="1556"/>
  <line id="Capline-L" style="fill:none;stroke:#27AAE1;opacity:1;stroke-width:0.577;" x1="263" x2="3036" y1="1485.54" y2="1485.54"/>
  <rect height="119.336" id="left-margin" style="fill:#00AEEF;stroke:none;opacity:0.4;" width="9.96094" x="1401.04" y="1030.79"/>
  <rect height="119.336" id="right-margin" style="fill:#00AEEF;stroke:none;opacity:0.4;" width="9.96094" x="1488.69" y="1030.79"/>
 </g>
 <g id="Symbols">
  <g id="Black-L" transform="matrix(1 0 0 1 2867.63 1556)">
   <path d="M 118.652 -76.1719 C 118.652 -82.666 113.623 -88.4766 105.078 -88.4766 L 26.4648 -88.4766 C 17.9199 -88.4766 12.8906 -82.7148 12.8906 -76.1719 C 12.8906 -72.998 14.0625 -70.2637 16.1133 -66.1133 L 52.6367 9.13086 C 55.8105 15.625 60.0586 19.0918 65.7715 19.0918 C 71.4355 19.0918 75.6836 15.625 78.8574 9.13086 L 115.43 -66.1133 C 117.48 -70.2637 118.652 -72.998 118.652 -76.1719 Z M 92.5293 -67.4316 C 92.5293 -67.2363 92.4316 -67.0898 92.2852 -66.7969 L 66.2598 -10.1562 C 66.1133 -9.91211 65.9668 -9.76562 65.7715 -9.76562 C 65.5273 -9.76562 65.4297 -9.91211 65.2832 -10.1562 L 39.209 -66.8457 C 39.0625 -67.1387 38.9648 -67.2852 38.9648 -67.4316 C 38.9648 -67.7246 39.209 -67.9199 39.5508 -67.9199 L 91.9434 -67.8711 C 92.2852 -67.8711 92.5293 -67.7246 92.5293 -67.4316 Z"/>
  </g>
  <g id="Heavy-L" transform="matrix(1 0 0 1 2571.63 1556)">
   <path d="M 117.236 -76.9531 C 117.236 -82.959 112.646 -87.9883 104.932 -87.9883 L 25.1953 -87.9883 C 17.4805 -87.9883 12.8906 -82.959 12.8906 -77.002 C 12.8906 -74.0234 14.0137 -71.5332 15.8691 -67.7734 L 53.2715 9.27734 C 56.2012 15.3809 60.0098 18.4082 65.0391 18.4082 C 70.1172 18.4082 73.877 15.3809 76.8555 9.27734 L 114.258 -67.7734 C 116.113 -71.4844 117.236 -74.0234 117.236 -76.9531 Z M 94.873 -69.6777 C 94.873 -69.4824 94.7754 -69.2871 94.6289 -68.9941 L 65.6738 -6.88477 C 65.5273 -6.54297 65.332 -6.34766 65.0391 -6.34766 C 64.7949 -6.34766 64.5996 -6.54297 64.4531 -6.88477 L 35.4492 -68.9941 C 35.3027 -69.2871 35.2051 -69.4824 35.2051 -69.7266 C 35.2051 -70.0195 35.4492 -70.2148 35.8887 -70.2148 L 94.1895 -70.2148 C 94.6289 -70.2148 94.873 -70.0195 94.873 -69.6777 Z"/>
  </g>
  <g id="Bold-L" transform="matrix(1 0 0 1 2275.72 1556)">
   <path d="M 115.625 -77.8809 C 115.625 -83.252 111.523 -87.4512 104.736 -87.4512 L 23.7793 -87.4512 C 16.9922 -87.4512 12.8906 -83.252 12.8906 -77.9297 C 12.8906 -75.1953 13.9648 -72.9004 15.5762 -69.6289 L 53.9062 9.47266 C 56.6406 15.0879 59.9121 17.5781 64.2578 17.5781 C 68.6035 17.5781 71.875 15.0879 74.6094 9.47266 L 112.939 -69.6289 C 114.551 -72.9004 115.625 -75.1465 115.625 -77.8809 Z M 97.5098 -72.2168 C 97.5098 -71.9238 97.3633 -71.7285 97.2168 -71.3867 L 64.9902 -3.17383 C 64.8438 -2.83203 64.5996 -2.53906 64.2578 -2.53906 C 63.916 -2.53906 63.6719 -2.83203 63.5254 -3.17383 L 31.2988 -71.4355 C 31.1523 -71.7285 31.0059 -71.9727 31.0059 -72.2168 C 31.0059 -72.6074 31.25 -72.8516 31.7871 -72.8516 L 96.7285 -72.8027 C 97.2168 -72.8027 97.5098 -72.5586 97.5098 -72.2168 Z"/>
  </g>
  <g id="Semibold-L" transform="matrix(1 0 0 1 1979.55 1556)">
   <path d="M 114.551 -78.5156 C 114.551 -83.4473 110.791 -87.0605 104.639 -87.0605 L 22.8027 -87.1094 C 16.6504 -87.1094 12.8906 -83.4961 12.8906 -78.5156 C 12.8906 -75.9766 13.916 -73.877 15.3809 -70.8984 L 54.3945 9.57031 C 56.9824 14.8438 59.8145 17.041 63.7207 17.041 C 67.5781 17.041 70.459 14.8438 73.0469 9.57031 L 112.012 -70.8984 C 113.477 -73.8281 114.551 -75.9277 114.551 -78.5156 Z M 99.3164 -73.9258 C 99.3164 -73.6328 99.1699 -73.3887 99.0234 -73.0469 L 64.5508 -0.634766 C 64.3555 -0.244141 64.1113 0.0976562 63.7207 0.0976562 C 63.3301 0.0976562 63.0371 -0.244141 62.8906 -0.634766 L 28.418 -73.0957 C 28.2227 -73.4375 28.125 -73.6816 28.125 -73.9746 C 28.125 -74.4141 28.3691 -74.6582 28.9551 -74.6582 L 98.4375 -74.6094 C 99.0234 -74.6094 99.3164 -74.3652 99.3164 -73.9258 Z"/>
  </g>
  <g id="Medium-L" transform="matrix(1 0 0 1 1683.25 1556)">
   <path d="M 113.721 -78.9551 C 113.721 -83.5938 110.205 -86.7676 104.541 -86.7676 L 22.0215 -86.8164 C 16.4062 -86.8164 12.8906 -83.6426 12.8906 -79.0039 C 12.8906 -76.5625 13.916 -74.6094 15.2344 -71.8262 L 54.7363 9.66797 C 57.1777 14.6973 59.7656 16.6016 63.2812 16.6016 C 66.7969 16.6016 69.3848 14.6973 71.875 9.66797 L 111.328 -71.8262 C 112.695 -74.5605 113.721 -76.5137 113.721 -78.9551 Z M 100.684 -75.2441 C 100.684 -74.9512 100.537 -74.6582 100.342 -74.3164 L 64.209 1.31836 C 64.0137 1.70898 63.7207 2.09961 63.2812 2.09961 C 62.8906 2.09961 62.5977 1.70898 62.4023 1.31836 L 26.2207 -74.3652 C 26.0742 -74.707 25.9277 -75 25.9277 -75.293 C 25.9277 -75.7324 26.2207 -76.0254 26.8066 -76.0254 L 99.7559 -75.9766 C 100.342 -75.9766 100.684 -75.6836 100.684 -75.2441 Z"/>
  </g>
  <g id="Regular-L" transform="matrix(1 0 0 1 1387.1 1556)">
   <path d="M 112.598 -79.5898 C 112.598 -83.7891 109.424 -86.4258 104.443 -86.4258 L 21.0938 -86.4746 C 16.0645 -86.4746 12.8906 -83.8379 12.8906 -79.6387 C 12.8906 -77.3438 13.8672 -75.5859 15.0879 -73.0957 L 55.1758 9.76562 C 57.5195 14.502 59.7168 16.0645 62.7441 16.0645 C 65.8203 16.0645 68.0176 14.502 70.3125 9.76562 L 110.449 -73.0957 C 111.621 -75.5371 112.598 -77.2949 112.598 -79.5898 Z M 102.49 -77.002 C 102.49 -76.6602 102.295 -76.3184 102.148 -75.9766 L 63.7695 3.85742 C 63.5742 4.24805 63.2324 4.6875 62.7441 4.6875 C 62.3047 4.6875 61.9629 4.24805 61.7676 3.85742 L 23.3887 -76.0254 C 23.1934 -76.3672 23.0469 -76.709 23.0469 -77.0508 C 23.0469 -77.4902 23.3398 -77.832 24.0234 -77.832 L 101.465 -77.7344 C 102.148 -77.7344 102.49 -77.4414 102.49 -77.002 Z"/>
  </g>
  <g id="Light-L" transform="matrix(1 0 0 1 1090.71 1556)">
   <path d="M 111.963 -80.3711 C 111.963 -83.9844 109.277 -86.2793 104.932 -86.2793 L 19.9219 -86.2793 C 15.5762 -86.2793 12.8906 -84.0332 12.8906 -80.4199 C 12.8906 -78.5156 13.6719 -77.0996 14.7461 -74.9023 L 56.0059 10.6445 C 57.8613 14.4531 59.7656 15.918 62.4023 15.918 C 65.0879 15.918 66.9922 14.4531 68.8477 10.6445 L 110.107 -74.9023 C 111.182 -77.0508 111.963 -78.4668 111.963 -80.3711 Z M 104.346 -78.6621 C 104.346 -78.1738 104.102 -77.7832 103.906 -77.3438 L 63.8184 6.20117 C 63.5742 6.78711 63.0859 7.37305 62.4023 7.37305 C 61.7676 7.37305 61.2793 6.78711 61.0352 6.20117 L 20.9473 -77.3438 C 20.752 -77.832 20.5078 -78.2227 20.5078 -78.6621 C 20.5078 -79.248 20.8984 -79.6875 21.8262 -79.6875 L 102.979 -79.6387 C 103.906 -79.6387 104.346 -79.248 104.346 -78.6621 Z"/>
  </g>
  <g id="Thin-L" transform="matrix(1 0 0 1 794.435 1556)">
   <path d="M 111.084 -81.4453 C 111.084 -84.2773 109.033 -86.084 105.615 -86.084 L 18.3594 -86.084 C 14.8926 -86.084 12.8906 -84.2773 12.8906 -81.4941 C 12.8906 -80.0781 13.4277 -79.0527 14.3066 -77.2461 L 57.0801 11.8164 C 58.3496 14.3555 59.8145 15.6738 61.9629 15.6738 C 64.1113 15.6738 65.625 14.3555 66.8945 11.8164 L 109.668 -77.2461 C 110.547 -79.0527 111.084 -80.0293 111.084 -81.4453 Z M 106.787 -80.8594 C 106.787 -80.2246 106.494 -79.7363 106.201 -79.1016 L 63.916 9.32617 C 63.5742 10.1074 62.8906 10.9863 61.9629 10.9863 C 61.084 10.9863 60.4004 10.1074 60.0586 9.32617 L 17.7734 -79.1016 C 17.4805 -79.7363 17.1387 -80.2734 17.1387 -80.8594 C 17.1387 -81.5918 17.6758 -82.1289 18.9453 -82.1289 L 104.98 -82.1289 C 106.201 -82.1289 106.787 -81.5918 106.787 -80.8594 Z"/>
  </g>
  <g id="Ultralight-L" transform="matrix(1 0 0 1 497.944 1556)">
   <path d="M 110.645 -82.0312 C 110.645 -84.375 108.936 -85.9863 105.957 -85.9863 L 17.5781 -85.9375 C 14.5996 -85.9375 12.8906 -84.375 12.8906 -82.0312 C 12.8906 -80.8594 13.3301 -80.0781 14.0625 -78.4668 L 57.6172 12.4023 C 58.5938 14.3555 59.8633 15.5762 61.7676 15.5762 C 63.623 15.5762 64.8926 14.3555 65.8691 12.4023 L 109.424 -78.4668 C 110.205 -80.0781 110.645 -80.8594 110.645 -82.0312 Z M 108.057 -81.9824 C 108.057 -81.2988 107.715 -80.7129 107.373 -80.0293 L 63.9648 10.9375 C 63.5742 11.8164 62.793 12.8418 61.7676 12.8418 C 60.7422 12.8418 59.9609 11.8164 59.5215 10.9375 L 16.1133 -80.0293 C 15.7715 -80.7129 15.4297 -81.2988 15.4297 -81.9824 C 15.4297 -82.8125 16.0156 -83.3984 17.4805 -83.3984 L 106.006 -83.3984 C 107.373 -83.3984 108.057 -82.8125 108.057 -81.9824 Z"/>
  </g>
  <g id="Black-M" transform="matrix(1 0 0 1 2881.69 1126)">
   <path d="M 93.457 -66.3086 C 93.457 -71.7773 89.2578 -77.0508 81.8359 -77.0508 L 21.582 -77.0508 C 14.1602 -77.0508 9.96094 -71.7773 9.96094 -66.3086 C 9.96094 -63.7207 10.8398 -61.4746 12.5977 -57.9102 L 40.4297 -0.585938 C 42.9199 4.54102 46.6797 7.76367 51.709 7.76367 C 56.7383 7.76367 60.5469 4.54102 63.0371 -0.585938 L 90.8691 -57.9102 C 92.627 -61.4746 93.457 -63.7207 93.457 -66.3086 Z M 69.4824 -58.0078 C 69.4824 -57.9102 69.4336 -57.7637 69.2871 -57.5195 L 52.1484 -18.9941 C 52.0508 -18.75 51.9043 -18.6523 51.709 -18.6523 C 51.5137 -18.6523 51.416 -18.75 51.2695 -18.9941 L 34.082 -57.5195 C 33.9355 -57.7637 33.8867 -57.9102 33.8867 -58.0078 C 33.8867 -58.252 34.082 -58.3984 34.375 -58.3984 L 68.9941 -58.3984 C 69.2871 -58.3984 69.4824 -58.252 69.4824 -58.0078 Z"/>
  </g>
  <g id="Heavy-M" transform="matrix(1 0 0 1 2585.66 1126)">
   <path d="M 92.0898 -66.9922 C 92.0898 -71.9727 88.2324 -76.5625 81.5918 -76.5625 L 20.5078 -76.5625 C 13.8184 -76.5625 9.96094 -72.0215 9.96094 -66.9922 C 9.96094 -64.5508 10.8398 -62.4512 12.4023 -59.2285 L 40.8691 -0.634766 C 43.2617 4.24805 46.582 7.03125 51.0254 7.03125 C 55.4688 7.03125 58.8379 4.24805 61.2305 -0.634766 L 89.6484 -59.2285 C 91.2109 -62.4512 92.0898 -64.5508 92.0898 -66.9922 Z M 71.582 -60.0586 C 71.582 -59.9121 71.4844 -59.7656 71.3867 -59.5215 L 51.5137 -16.0156 C 51.3672 -15.7715 51.2207 -15.625 51.0254 -15.625 C 50.8301 -15.625 50.6836 -15.7715 50.5859 -16.0156 L 30.6152 -59.5215 C 30.5176 -59.7656 30.4199 -59.9121 30.4199 -60.0586 C 30.4199 -60.3027 30.6152 -60.4492 30.957 -60.4492 L 71.0449 -60.4492 C 71.3867 -60.4492 71.582 -60.3027 71.582 -60.0586 Z"/>
  </g>
  <g id="Bold-M" transform="matrix(1 0 0 1 2289.71 1126)">
   <path d="M 90.5762 -67.7246 C 90.5762 -72.2656 87.0605 -76.0254 81.25 -76.0254 L 19.2871 -76.0254 C 13.4277 -76.0254 9.96094 -72.2656 9.96094 -67.7246 C 9.96094 -65.4785 10.8398 -63.5742 12.207 -60.7422 L 41.3574 -0.732422 C 43.6035 3.95508 46.4355 6.20117 50.2441 6.20117 C 54.0527 6.20117 56.8848 3.95508 59.1797 -0.732422 L 88.2812 -60.7422 C 89.6973 -63.5254 90.5762 -65.4297 90.5762 -67.7246 Z M 73.9258 -62.3535 C 73.9258 -62.1582 73.8281 -62.0117 73.7305 -61.7676 L 50.7324 -12.6465 C 50.6348 -12.4023 50.4883 -12.2559 50.2441 -12.2559 C 50.0488 -12.2559 49.9023 -12.4023 49.7559 -12.6465 L 26.7578 -61.8164 C 26.6602 -62.0117 26.5625 -62.207 26.5625 -62.3535 C 26.5625 -62.5977 26.7578 -62.793 27.0996 -62.793 L 73.3887 -62.7441 C 73.7305 -62.7441 73.9258 -62.5977 73.9258 -62.3535 Z"/>
  </g>
  <g id="Semibold-M" transform="matrix(1 0 0 1 1993.54 1126)">
   <path d="M 89.502 -68.2129 C 89.502 -72.4121 86.2793 -75.6348 81.0059 -75.6348 L 18.4082 -75.6836 C 13.1836 -75.6836 9.96094 -72.4609 9.96094 -68.2617 C 9.96094 -66.1133 10.8398 -64.3066 12.0605 -61.7676 L 41.6992 -0.78125 C 43.8477 3.71094 46.3379 5.61523 49.707 5.61523 C 53.0762 5.61523 55.5664 3.71094 57.7637 -0.78125 L 87.3535 -61.7676 C 88.623 -64.3066 89.502 -66.0645 89.502 -68.2129 Z M 75.5371 -63.916 C 75.5371 -63.7207 75.4395 -63.5254 75.293 -63.3301 L 50.2441 -10.3516 C 50.0977 -10.1074 49.9512 -9.91211 49.707 -9.91211 C 49.5117 -9.91211 49.3164 -10.1074 49.2188 -10.3516 L 24.1211 -63.3789 C 24.0234 -63.5742 23.9258 -63.7695 23.9258 -63.916 C 23.9258 -64.209 24.1211 -64.3555 24.4629 -64.3555 L 74.9512 -64.3555 C 75.293 -64.3555 75.5371 -64.1602 75.5371 -63.916 Z"/>
  </g>
  <g id="Medium-M" transform="matrix(1 0 0 1 1697.24 1126)">
   <path d="M 88.6719 -68.6035 C 88.6719 -72.5586 85.6934 -75.3418 80.8594 -75.3418 L 17.7734 -75.3906 C 12.9883 -75.3906 9.96094 -72.6074 9.96094 -68.6523 C 9.96094 -66.6016 10.8398 -64.8926 11.9629 -62.5488 L 41.9434 -0.78125 C 44.043 3.56445 46.2891 5.17578 49.3164 5.17578 C 52.3438 5.17578 54.5898 3.56445 56.6895 -0.78125 L 86.6699 -62.5488 C 87.8418 -64.8438 88.6719 -66.5527 88.6719 -68.6035 Z M 76.7578 -65.0879 C 76.7578 -64.8926 76.6602 -64.6973 76.5137 -64.502 L 49.8535 -8.59375 C 49.707 -8.34961 49.5605 -8.1543 49.3164 -8.1543 C 49.0723 -8.1543 48.9258 -8.34961 48.7793 -8.59375 L 22.1191 -64.5508 C 21.9727 -64.7461 21.875 -64.9414 21.875 -65.1367 C 21.875 -65.4297 22.0703 -65.5762 22.4609 -65.5762 L 76.1719 -65.5273 C 76.5137 -65.5273 76.7578 -65.3809 76.7578 -65.0879 Z"/>
  </g>
  <g id="Regular-M" transform="matrix(1 0 0 1 1401.04 1126)">
   <path d="M 87.6465 -69.1406 C 87.6465 -72.7539 84.8633 -75 80.6152 -75 L 16.9434 -75.0488 C 12.6953 -75.0488 9.96094 -72.8027 9.96094 -69.1895 C 9.96094 -67.2363 10.8398 -65.625 11.8164 -63.5742 L 42.2852 -0.830078 C 44.3359 3.32031 46.1914 4.63867 48.7793 4.63867 C 51.3672 4.63867 53.2715 3.32031 55.3223 -0.830078 L 85.7422 -63.5742 C 86.7676 -65.5762 87.6465 -67.1875 87.6465 -69.1406 Z M 78.3203 -66.6504 C 78.3203 -66.4551 78.2227 -66.2598 78.125 -66.0156 L 49.3652 -6.29883 C 49.2188 -6.05469 49.0723 -5.85938 48.7793 -5.85938 C 48.5352 -5.85938 48.3887 -6.05469 48.2422 -6.29883 L 19.4824 -66.0645 C 19.3848 -66.3086 19.2871 -66.5039 19.2871 -66.6992 C 19.2871 -66.9922 19.4336 -67.1875 19.8242 -67.1875 L 77.7344 -67.1387 C 78.125 -67.1387 78.3203 -66.9434 78.3203 -66.6504 Z"/>
  </g>
  <g id="Light-M" transform="matrix(1 0 0 1 1104.65 1126)">
   <path d="M 87.0117 -69.873 C 87.0117 -72.9004 84.7168 -74.8535 81.0547 -74.8535 L 15.918 -74.8535 C 12.2559 -74.8535 9.96094 -72.9492 9.96094 -69.9219 C 9.96094 -68.2617 10.6445 -66.9922 11.5234 -65.1855 L 43.0176 -0.0488281 C 44.6777 3.27148 46.2402 4.49219 48.4863 4.49219 C 50.7324 4.49219 52.3438 3.27148 54.0039 -0.0488281 L 85.4492 -65.1855 C 86.3281 -66.9434 87.0117 -68.2129 87.0117 -69.873 Z M 79.9805 -68.1152 C 79.9805 -67.8223 79.834 -67.5781 79.6875 -67.2363 L 49.4141 -4.15039 C 49.2188 -3.80859 48.9258 -3.41797 48.4863 -3.41797 C 48.0469 -3.41797 47.7539 -3.80859 47.6074 -4.15039 L 17.2852 -67.2852 C 17.1387 -67.5781 16.9922 -67.8711 16.9922 -68.1641 C 16.9922 -68.5547 17.2852 -68.8477 17.8711 -68.8477 L 79.1016 -68.7988 C 79.6875 -68.7988 79.9805 -68.5547 79.9805 -68.1152 Z"/>
  </g>
  <g id="Thin-M" transform="matrix(1 0 0 1 808.327 1126)">
   <path d="M 86.2305 -70.8496 C 86.2305 -73.1445 84.5215 -74.6582 81.6895 -74.6582 L 14.5508 -74.6582 C 11.6699 -74.6582 9.96094 -73.1934 9.96094 -70.8496 C 9.96094 -69.6289 10.4492 -68.75 11.1328 -67.2852 L 43.9941 0.976562 C 45.0684 3.22266 46.3379 4.29688 48.0957 4.29688 C 49.8535 4.29688 51.123 3.22266 52.2461 0.976562 L 85.0586 -67.2852 C 85.7422 -68.75 86.2305 -69.6289 86.2305 -70.8496 Z M 82.2266 -70.1172 C 82.2266 -69.6777 81.9824 -69.2871 81.7871 -68.8477 L 49.5117 -1.36719 C 49.2188 -0.830078 48.7305 -0.195312 48.0957 -0.195312 C 47.4609 -0.195312 46.9727 -0.830078 46.7285 -1.36719 L 14.4043 -68.8477 C 14.209 -69.2871 14.0137 -69.6777 14.0137 -70.1172 C 14.0137 -70.6543 14.3555 -71.0449 15.2832 -71.0449 L 80.9082 -71.0449 C 81.7871 -71.0449 82.2266 -70.6543 82.2266 -70.1172 Z"/>
  </g>
  <g id="Ultralight-M" transform="matrix(1 0 0 1 511.811 1126)">
   <path d="M 85.8398 -71.3379 C 85.8398 -73.291 84.4238 -74.5605 81.9824 -74.5605 L 13.8184 -74.5605 C 11.377 -74.5605 9.96094 -73.291 9.96094 -71.3379 C 9.96094 -70.3613 10.3027 -69.6777 10.9375 -68.3594 L 44.4824 1.51367 C 45.3125 3.17383 46.3379 4.19922 47.9004 4.19922 C 49.4629 4.19922 50.4883 3.17383 51.3184 1.51367 L 84.8633 -68.3594 C 85.498 -69.6777 85.8398 -70.3613 85.8398 -71.3379 Z M 83.3496 -71.0938 C 83.3496 -70.6055 83.1055 -70.166 82.8613 -69.6777 L 49.5605 0.0488281 C 49.2188 0.683594 48.6328 1.46484 47.9004 1.46484 C 47.1191 1.46484 46.582 0.683594 46.2402 0.0488281 L 12.9395 -69.6777 C 12.6953 -70.166 12.4512 -70.6055 12.4512 -71.0938 C 12.4512 -71.7285 12.8906 -72.168 13.9648 -72.168 L 81.8359 -72.168 C 82.8613 -72.168 83.3496 -71.7285 83.3496 -71.0938 Z"/>
  </g>
  <g id="Black-S" transform="matrix(1 0 0 1 2892.92 696)">
   <path d="M 73.1445 -59.6191 C 73.1445 -63.8672 69.873 -67.9688 64.1113 -67.9688 L 16.8457 -67.9688 C 11.084 -67.9688 7.8125 -63.8672 7.8125 -59.6191 C 7.8125 -57.6172 8.49609 -55.8594 9.86328 -53.0762 L 31.6895 -8.10547 C 33.6426 -4.10156 36.5723 -1.61133 40.4785 -1.61133 C 44.3848 -1.61133 47.3145 -4.10156 49.2676 -8.10547 L 71.0938 -53.0762 C 72.4609 -55.8594 73.1445 -57.6172 73.1445 -59.6191 Z M 54.5898 -53.2227 C 54.5898 -53.125 54.541 -53.0273 54.4434 -52.832 L 40.8203 -22.3145 C 40.7227 -22.1191 40.625 -22.0215 40.4785 -22.0215 C 40.332 -22.0215 40.2344 -22.1191 40.1367 -22.3145 L 26.4648 -52.832 C 26.3672 -53.0273 26.3184 -53.125 26.3184 -53.2227 C 26.3184 -53.418 26.4648 -53.5156 26.709 -53.5156 L 54.1992 -53.5156 C 54.4434 -53.5156 54.5898 -53.418 54.5898 -53.2227 Z"/>
  </g>
  <g id="Heavy-S" transform="matrix(1 0 0 1 2596.7 696)">
   <path d="M 72.168 -60.0586 C 72.168 -64.0137 69.0918 -67.627 63.8184 -67.627 L 16.1133 -67.627 C 10.8887 -67.627 7.8125 -64.0137 7.8125 -60.0586 C 7.8125 -58.1055 8.49609 -56.4453 9.76562 -53.9062 L 31.9336 -8.25195 C 33.8379 -4.29688 36.4746 -2.14844 39.9902 -2.14844 C 43.5059 -2.14844 46.0938 -4.29688 47.998 -8.25195 L 70.2148 -53.9062 C 71.4355 -56.4453 72.168 -58.1055 72.168 -60.0586 Z M 56.0059 -54.5898 C 56.0059 -54.4922 55.957 -54.3945 55.8594 -54.248 L 40.2832 -20.2637 C 40.2344 -20.0684 40.1367 -19.9707 39.9902 -19.9707 C 39.8438 -19.9707 39.7461 -20.0684 39.6484 -20.2637 L 24.0723 -54.248 C 23.9746 -54.4434 23.9258 -54.541 23.9258 -54.6387 C 23.9258 -54.834 24.0723 -54.9316 24.3164 -54.9316 L 55.6152 -54.8828 C 55.8594 -54.8828 56.0059 -54.7852 56.0059 -54.5898 Z"/>
  </g>
  <g id="Bold-S" transform="matrix(1 0 0 1 2300.55 696)">
   <path d="M 71.0449 -60.5469 C 71.0449 -64.209 68.2129 -67.1875 63.5254 -67.1875 L 15.332 -67.2363 C 10.6445 -67.2363 7.8125 -64.209 7.8125 -60.5469 C 7.8125 -58.6914 8.54492 -57.1289 9.66797 -54.8828 L 32.2266 -8.39844 C 34.1309 -4.54102 36.377 -2.7832 39.4531 -2.7832 C 42.4805 -2.7832 44.7754 -4.54102 46.6309 -8.39844 L 69.2383 -54.8828 C 70.3125 -57.1289 71.0449 -58.6914 71.0449 -60.5469 Z M 57.5684 -56.1523 C 57.5684 -56.0547 57.5195 -55.957 57.4707 -55.8105 L 39.7461 -17.9688 C 39.6484 -17.7734 39.5508 -17.7246 39.4531 -17.7246 C 39.3066 -17.7246 39.209 -17.7734 39.1113 -17.9688 L 21.3867 -55.8105 C 21.2891 -56.0059 21.2402 -56.1035 21.2402 -56.2012 C 21.2402 -56.3965 21.3867 -56.4941 21.582 -56.4941 L 57.2266 -56.4453 C 57.4707 -56.4453 57.5684 -56.3477 57.5684 -56.1523 Z"/>
  </g>
  <g id="Semibold-S" transform="matrix(1 0 0 1 2004.23 696)">
   <path d="M 70.2637 -60.8398 C 70.2637 -64.3066 67.627 -66.9434 63.3301 -66.9434 L 14.7949 -66.9434 C 10.4492 -66.9434 7.8125 -64.3555 7.8125 -60.8887 C 7.8125 -59.082 8.54492 -57.6172 9.57031 -55.5176 L 32.4219 -8.49609 C 34.2773 -4.6875 36.3281 -3.17383 39.0625 -3.17383 C 41.7969 -3.17383 43.7988 -4.6875 45.6543 -8.49609 L 68.5547 -55.5176 C 69.5312 -57.5684 70.2637 -59.082 70.2637 -60.8398 Z M 58.6426 -57.2266 C 58.6426 -57.1289 58.5938 -57.0312 58.5449 -56.8848 L 39.3066 -16.3574 C 39.2578 -16.2109 39.1602 -16.1133 39.0625 -16.1133 C 38.916 -16.1133 38.8184 -16.2109 38.7695 -16.3574 L 19.5312 -56.9336 C 19.4824 -57.0801 19.4336 -57.1777 19.4336 -57.2754 C 19.4336 -57.4707 19.5312 -57.5684 19.7266 -57.5684 L 58.3496 -57.5195 C 58.5449 -57.5195 58.6426 -57.4219 58.6426 -57.2266 Z"/>
  </g>
  <g id="Medium-S" transform="matrix(1 0 0 1 1707.79 696)">
   <path d="M 69.7266 -61.1328 C 69.7266 -64.4043 67.1875 -66.6992 63.1836 -66.6992 L 14.3555 -66.748 C 10.3516 -66.748 7.8125 -64.4531 7.8125 -61.1328 C 7.8125 -59.375 8.54492 -57.959 9.52148 -56.0059 L 32.5684 -8.54492 C 34.4238 -4.83398 36.2793 -3.51562 38.7695 -3.51562 C 41.2598 -3.51562 43.1152 -4.83398 44.9219 -8.54492 L 68.0176 -56.0059 C 68.9453 -57.9102 69.7266 -59.375 69.7266 -61.1328 Z M 59.4727 -58.0566 C 59.4727 -57.959 59.4238 -57.8613 59.375 -57.7148 L 39.0137 -15.1367 C 38.9648 -15.0391 38.8672 -14.9414 38.7695 -14.9414 C 38.623 -14.9414 38.5742 -15.0391 38.4766 -15.1367 L 18.1641 -57.7637 C 18.0664 -57.8613 18.0176 -58.0078 18.0176 -58.1055 C 18.0176 -58.252 18.1152 -58.3496 18.3105 -58.3496 L 59.1797 -58.3496 C 59.375 -58.3496 59.4727 -58.2031 59.4727 -58.0566 Z"/>
  </g>
  <g id="Regular-S" transform="matrix(1 0 0 1 1411.47 696)">
   <path d="M 68.9453 -61.4258 C 68.9453 -64.5508 66.6016 -66.4551 62.9395 -66.4551 L 13.8184 -66.5039 C 10.2051 -66.5039 7.8125 -64.5996 7.8125 -61.4746 C 7.8125 -59.7656 8.54492 -58.3984 9.42383 -56.6406 L 32.7637 -8.69141 C 34.5703 -4.98047 36.1816 -3.90625 38.3789 -3.90625 C 40.5762 -3.90625 42.1875 -4.98047 43.9941 -8.69141 L 67.334 -56.6406 C 68.2129 -58.3496 68.9453 -59.7168 68.9453 -61.4258 Z M 60.5469 -59.1309 C 60.5469 -58.9844 60.498 -58.8867 60.4492 -58.7891 L 38.623 -13.5742 C 38.5742 -13.4766 38.5254 -13.3789 38.3789 -13.3789 C 38.2812 -13.3789 38.1836 -13.4766 38.1348 -13.5742 L 16.3086 -58.8379 C 16.2598 -58.9355 16.2109 -59.0332 16.2109 -59.1797 C 16.2109 -59.3262 16.3086 -59.4238 16.5039 -59.4238 L 60.2539 -59.375 C 60.4492 -59.375 60.5469 -59.2773 60.5469 -59.1309 Z"/>
  </g>
  <g id="Light-S" transform="matrix(1 0 0 1 1115.02 696)">
   <path d="M 68.4082 -62.1094 C 68.4082 -64.6973 66.4551 -66.3086 63.3789 -66.3086 L 12.8906 -66.3574 C 9.76562 -66.3574 7.8125 -64.7461 7.8125 -62.1094 C 7.8125 -60.6934 8.39844 -59.6191 9.17969 -58.0566 L 33.4473 -7.95898 C 34.8633 -5.0293 36.2305 -4.05273 38.1348 -4.05273 C 39.9902 -4.05273 41.3574 -5.0293 42.8223 -7.95898 L 67.0898 -58.0566 C 67.8223 -59.5703 68.4082 -60.6934 68.4082 -62.1094 Z M 62.0605 -60.4492 C 62.0605 -60.2539 61.9629 -60.0586 61.8652 -59.8633 L 38.6719 -11.7188 C 38.5742 -11.4746 38.3789 -11.2305 38.1348 -11.2305 C 37.8418 -11.2305 37.6465 -11.4746 37.5488 -11.7188 L 14.4043 -59.8633 C 14.3066 -60.1074 14.209 -60.2539 14.209 -60.4492 C 14.209 -60.7422 14.3555 -60.9375 14.7461 -60.9375 L 61.4746 -60.8887 C 61.8652 -60.8887 62.0605 -60.6934 62.0605 -60.4492 Z"/>
  </g>
  <g id="Thin-S" transform="matrix(1 0 0 1 818.654 696)">
   <path d="M 67.7246 -62.9395 C 67.7246 -64.8926 66.2598 -66.1621 63.8672 -66.1621 L 11.6699 -66.1621 C 9.27734 -66.1621 7.8125 -64.8926 7.8125 -62.9395 C 7.8125 -61.9141 8.25195 -61.1816 8.83789 -59.9609 L 34.2773 -7.08008 C 35.2539 -5.07812 36.2793 -4.24805 37.793 -4.24805 C 39.2578 -4.24805 40.2832 -5.07812 41.2598 -7.08008 L 66.748 -59.9609 C 67.334 -61.1328 67.7246 -61.9141 67.7246 -62.9395 Z M 64.0137 -62.1582 C 64.0137 -61.8652 63.8184 -61.5723 63.6719 -61.2793 L 38.7695 -9.22852 C 38.5742 -8.83789 38.2324 -8.39844 37.793 -8.39844 C 37.3047 -8.39844 36.9629 -8.83789 36.7676 -9.22852 L 11.8652 -61.2793 C 11.7188 -61.5723 11.5234 -61.8652 11.5234 -62.207 C 11.5234 -62.5977 11.8164 -62.8906 12.5 -62.8906 L 63.0371 -62.8418 C 63.6719 -62.8418 64.0137 -62.5977 64.0137 -62.1582 Z"/>
  </g>
  <g id="Ultralight-S" transform="matrix(1 0 0 1 522.113 696)">
   <path d="M 67.3828 -63.3789 C 67.3828 -64.9902 66.1621 -66.0645 64.1602 -66.0645 L 11.0352 -66.0645 C 8.98438 -66.0645 7.8125 -65.0391 7.8125 -63.3789 C 7.8125 -62.5488 8.10547 -61.9629 8.64258 -60.8887 L 34.7168 -6.5918 C 35.4492 -5.12695 36.3281 -4.3457 37.5977 -4.3457 C 38.8672 -4.3457 39.7461 -5.12695 40.4785 -6.5918 L 66.5527 -60.8887 C 67.041 -61.9629 67.3828 -62.5488 67.3828 -63.3789 Z M 64.9902 -63.0859 C 64.9902 -62.6953 64.7949 -62.3535 64.6484 -62.0117 L 38.8184 -7.95898 C 38.5742 -7.4707 38.1348 -6.93359 37.5977 -6.93359 C 37.0117 -6.93359 36.6211 -7.4707 36.377 -7.95898 L 10.5469 -62.0117 C 10.3516 -62.3535 10.1562 -62.6953 10.1562 -63.0859 C 10.1562 -63.5742 10.498 -63.8672 11.3281 -63.8672 L 63.8672 -63.8672 C 64.6484 -63.8672 64.9902 -63.5254 64.9902 -63.0859 Z"/>
  </g>
 </g>
</svg>
