<?xml version="1.0" encoding="UTF-8"?>
<!--Generator: Apple Native CoreSVG 123-->
<!DOCTYPE svg
PUBLIC "-//W3C//DTD SVG 1.1//EN"
       "http://www.w3.org/Graphics/SVG/1.1/DTD/svg11.dtd">
<svg version="1.1" xmlns="http://www.w3.org/2000/svg" xmlns:xlink="http://www.w3.org/1999/xlink" width="3300" height="2200">
 <!--glyph: "uni100125.medium", point size: 100.000000, font version: "Version 15.0d7e11", template writer version: "5"-->
 <g id="Notes">
  <rect height="2200" id="artboard" style="fill:white;opacity:1" width="3300" x="0" y="0"/>
  <line id="" style="fill:none;stroke:black;opacity:1;stroke-width:0.5;" x1="263" x2="3036" y1="292" y2="292"/>
  <text style="stroke:none;fill:black;font-family:-apple-system,&quot;SF Pro Display&quot;,&quot;SF Pro Text&quot;,Helvetica,sans-serif;font-weight:bold;" transform="matrix(1 0 0 1 263 322)">Weight/Scale Variations</text>
  <text style="stroke:none;fill:black;font-family:-apple-system,&quot;SF Pro Display&quot;,&quot;SF Pro Text&quot;,Helvetica,sans-serif;text-anchor:middle;" transform="matrix(1 0 0 1 559.711 322)">Ultralight</text>
  <text style="stroke:none;fill:black;font-family:-apple-system,&quot;SF Pro Display&quot;,&quot;SF Pro Text&quot;,Helvetica,sans-serif;text-anchor:middle;" transform="matrix(1 0 0 1 856.422 322)">Thin</text>
  <text style="stroke:none;fill:black;font-family:-apple-system,&quot;SF Pro Display&quot;,&quot;SF Pro Text&quot;,Helvetica,sans-serif;text-anchor:middle;" transform="matrix(1 0 0 1 1153.13 322)">Light</text>
  <text style="stroke:none;fill:black;font-family:-apple-system,&quot;SF Pro Display&quot;,&quot;SF Pro Text&quot;,Helvetica,sans-serif;text-anchor:middle;" transform="matrix(1 0 0 1 1449.84 322)">Regular</text>
  <text style="stroke:none;fill:black;font-family:-apple-system,&quot;SF Pro Display&quot;,&quot;SF Pro Text&quot;,Helvetica,sans-serif;text-anchor:middle;" transform="matrix(1 0 0 1 1746.56 322)">Medium</text>
  <text style="stroke:none;fill:black;font-family:-apple-system,&quot;SF Pro Display&quot;,&quot;SF Pro Text&quot;,Helvetica,sans-serif;text-anchor:middle;" transform="matrix(1 0 0 1 2043.27 322)">Semibold</text>
  <text style="stroke:none;fill:black;font-family:-apple-system,&quot;SF Pro Display&quot;,&quot;SF Pro Text&quot;,Helvetica,sans-serif;text-anchor:middle;" transform="matrix(1 0 0 1 2339.98 322)">Bold</text>
  <text style="stroke:none;fill:black;font-family:-apple-system,&quot;SF Pro Display&quot;,&quot;SF Pro Text&quot;,Helvetica,sans-serif;text-anchor:middle;" transform="matrix(1 0 0 1 2636.69 322)">Heavy</text>
  <text style="stroke:none;fill:black;font-family:-apple-system,&quot;SF Pro Display&quot;,&quot;SF Pro Text&quot;,Helvetica,sans-serif;text-anchor:middle;" transform="matrix(1 0 0 1 2933.4 322)">Black</text>
  <line id="" style="fill:none;stroke:black;opacity:1;stroke-width:0.5;" x1="263" x2="3036" y1="1903" y2="1903"/>
  <g id="" transform="matrix(1 0 0 1 263 1933)">
   <path d="M 9.24805 0.830078 C 13.5547 0.830078 17.1387 -2.74414 17.1387 -7.05078 C 17.1387 -11.3574 13.5449 -14.9316 9.23828 -14.9316 C 4.94141 -14.9316 1.36719 -11.3574 1.36719 -7.05078 C 1.36719 -2.74414 4.95117 0.830078 9.24805 0.830078 Z M 9.24805 -0.654297 C 5.70312 -0.654297 2.87109 -3.49609 2.87109 -7.05078 C 2.87109 -10.6055 5.69336 -13.4473 9.23828 -13.4473 C 12.793 -13.4473 15.6348 -10.6055 15.6445 -7.05078 C 15.6543 -3.49609 12.8027 -0.654297 9.24805 -0.654297 Z M 9.22852 -3.42773 C 9.69727 -3.42773 9.9707 -3.74023 9.9707 -4.25781 L 9.9707 -6.31836 L 12.1973 -6.31836 C 12.6953 -6.31836 13.0371 -6.57227 13.0371 -7.04102 C 13.0371 -7.51953 12.7148 -7.7832 12.1973 -7.7832 L 9.9707 -7.7832 L 9.9707 -10.0098 C 9.9707 -10.5273 9.69727 -10.8496 9.22852 -10.8496 C 8.75977 -10.8496 8.50586 -10.5078 8.50586 -10.0098 L 8.50586 -7.7832 L 6.29883 -7.7832 C 5.78125 -7.7832 5.44922 -7.51953 5.44922 -7.04102 C 5.44922 -6.57227 5.80078 -6.31836 6.29883 -6.31836 L 8.50586 -6.31836 L 8.50586 -4.25781 C 8.50586 -3.75977 8.75977 -3.42773 9.22852 -3.42773 Z"/>
  </g>
  <g id="" transform="matrix(1 0 0 1 281.506 1933)">
   <path d="M 11.709 2.91016 C 17.1582 2.91016 21.6699 -1.60156 21.6699 -7.05078 C 21.6699 -12.4902 17.1484 -17.0117 11.6992 -17.0117 C 6.25977 -17.0117 1.74805 -12.4902 1.74805 -7.05078 C 1.74805 -1.60156 6.26953 2.91016 11.709 2.91016 Z M 11.709 1.25 C 7.09961 1.25 3.41797 -2.44141 3.41797 -7.05078 C 3.41797 -11.6504 7.08984 -15.3516 11.6992 -15.3516 C 16.3086 -15.3516 20 -11.6504 20.0098 -7.05078 C 20.0195 -2.44141 16.3184 1.25 11.709 1.25 Z M 11.6895 -2.41211 C 12.207 -2.41211 12.5195 -2.77344 12.5195 -3.33984 L 12.5195 -6.23047 L 15.5762 -6.23047 C 16.123 -6.23047 16.5039 -6.51367 16.5039 -7.03125 C 16.5039 -7.55859 16.1426 -7.86133 15.5762 -7.86133 L 12.5195 -7.86133 L 12.5195 -10.9277 C 12.5195 -11.5039 12.207 -11.8555 11.6895 -11.8555 C 11.1719 -11.8555 10.8789 -11.4844 10.8789 -10.9277 L 10.8789 -7.86133 L 7.83203 -7.86133 C 7.26562 -7.86133 6.89453 -7.55859 6.89453 -7.03125 C 6.89453 -6.51367 7.28516 -6.23047 7.83203 -6.23047 L 10.8789 -6.23047 L 10.8789 -3.33984 C 10.8789 -2.79297 11.1719 -2.41211 11.6895 -2.41211 Z"/>
  </g>
  <g id="" transform="matrix(1 0 0 1 304.924 1933)">
   <path d="M 14.9707 5.67383 C 21.9336 5.67383 27.6953 -0.078125 27.6953 -7.04102 C 27.6953 -14.0039 21.9238 -19.7559 14.9609 -19.7559 C 8.00781 -19.7559 2.25586 -14.0039 2.25586 -7.04102 C 2.25586 -0.078125 8.01758 5.67383 14.9707 5.67383 Z M 14.9707 3.85742 C 8.93555 3.85742 4.08203 -1.00586 4.08203 -7.04102 C 4.08203 -13.0762 8.92578 -17.9395 14.9609 -17.9395 C 21.0059 -17.9395 25.8594 -13.0762 25.8691 -7.04102 C 25.8789 -1.00586 21.0156 3.85742 14.9707 3.85742 Z M 14.9512 -1.06445 C 15.5176 -1.06445 15.8691 -1.45508 15.8691 -2.06055 L 15.8691 -6.13281 L 20.1074 -6.13281 C 20.6934 -6.13281 21.1133 -6.46484 21.1133 -7.02148 C 21.1133 -7.59766 20.7227 -7.93945 20.1074 -7.93945 L 15.8691 -7.93945 L 15.8691 -12.1875 C 15.8691 -12.8027 15.5176 -13.1934 14.9512 -13.1934 C 14.3848 -13.1934 14.0625 -12.7832 14.0625 -12.1875 L 14.0625 -7.93945 L 9.83398 -7.93945 C 9.21875 -7.93945 8.80859 -7.59766 8.80859 -7.02148 C 8.80859 -6.46484 9.23828 -6.13281 9.83398 -6.13281 L 14.0625 -6.13281 L 14.0625 -2.06055 C 14.0625 -1.47461 14.3848 -1.06445 14.9512 -1.06445 Z"/>
  </g>
  <text style="stroke:none;fill:black;font-family:-apple-system,&quot;SF Pro Display&quot;,&quot;SF Pro Text&quot;,Helvetica,sans-serif;font-weight:bold;" transform="matrix(1 0 0 1 263 1953)">Design Variations</text>
  <text style="stroke:none;fill:black;font-family:-apple-system,&quot;SF Pro Display&quot;,&quot;SF Pro Text&quot;,Helvetica,sans-serif;" transform="matrix(1 0 0 1 263 1971)">Symbols are supported in up to nine weights and three scales.</text>
  <text style="stroke:none;fill:black;font-family:-apple-system,&quot;SF Pro Display&quot;,&quot;SF Pro Text&quot;,Helvetica,sans-serif;" transform="matrix(1 0 0 1 263 1989)">For optimal layout with text and other symbols, vertically align</text>
  <text style="stroke:none;fill:black;font-family:-apple-system,&quot;SF Pro Display&quot;,&quot;SF Pro Text&quot;,Helvetica,sans-serif;" transform="matrix(1 0 0 1 263 2007)">symbols with the adjacent text.</text>
  <rect height="14" id="" style="fill:#00AEEF;stroke:none;opacity:0.4;" width="3" x="776" y="1919"/>
  <g id="" transform="matrix(1 0 0 1 779 1933)">
   <path d="M 10.5273 0 L 12.373 0 L 7.17773 -14.0918 L 5.43945 -14.0918 L 0.244141 0 L 2.08984 0 L 3.50586 -4.0332 L 9.11133 -4.0332 Z M 6.2793 -11.9531 L 6.33789 -11.9531 L 8.59375 -5.52734 L 4.02344 -5.52734 Z"/>
  </g>
  <rect height="14" id="" style="fill:#00AEEF;stroke:none;opacity:0.4;" width="3" x="791.617" y="1919"/>
  <text style="stroke:none;fill:black;font-family:-apple-system,&quot;SF Pro Display&quot;,&quot;SF Pro Text&quot;,Helvetica,sans-serif;font-weight:bold;" transform="matrix(1 0 0 1 776 1953)">Margins</text>
  <text style="stroke:none;fill:black;font-family:-apple-system,&quot;SF Pro Display&quot;,&quot;SF Pro Text&quot;,Helvetica,sans-serif;" transform="matrix(1 0 0 1 776 1971)">Leading and trailing margins on the left and right side of each symbol</text>
  <text style="stroke:none;fill:black;font-family:-apple-system,&quot;SF Pro Display&quot;,&quot;SF Pro Text&quot;,Helvetica,sans-serif;" transform="matrix(1 0 0 1 776 1989)">can be adjusted by modifying the width of the blue rectangles.</text>
  <text style="stroke:none;fill:black;font-family:-apple-system,&quot;SF Pro Display&quot;,&quot;SF Pro Text&quot;,Helvetica,sans-serif;" transform="matrix(1 0 0 1 776 2007)">Modifications are automatically applied proportionally to all</text>
  <text style="stroke:none;fill:black;font-family:-apple-system,&quot;SF Pro Display&quot;,&quot;SF Pro Text&quot;,Helvetica,sans-serif;" transform="matrix(1 0 0 1 776 2025)">scales and weights.</text>
  <g id="" transform="matrix(1 0 0 1 1289 1933)">
   <path d="M 2.83203 3.11523 L 4.375 4.6582 C 5.22461 5.48828 6.19141 5.41992 7.06055 4.46289 L 17.2754 -6.66016 C 17.7051 -6.36719 18.0957 -6.37695 18.5645 -6.47461 L 19.6094 -6.68945 L 20.3027 -5.99609 L 20.2539 -5.47852 C 20.1855 -4.95117 20.3516 -4.53125 20.8496 -4.0332 L 21.6602 -3.22266 C 22.168 -2.71484 22.8223 -2.68555 23.3008 -3.16406 L 26.5527 -6.41602 C 27.0312 -6.89453 27.0117 -7.54883 26.5039 -8.05664 L 25.6836 -8.87695 C 25.1855 -9.375 24.7754 -9.55078 24.2383 -9.47266 L 23.7109 -9.41406 L 23.0566 -10.0781 L 23.3398 -11.2207 C 23.4863 -11.7871 23.3398 -12.2559 22.7148 -12.8613 L 20.3027 -15.2539 C 16.7578 -18.7793 12.2266 -18.6719 9.11133 -15.5371 C 8.69141 -15.1074 8.64258 -14.5215 8.91602 -14.0918 C 9.15039 -13.7207 9.62891 -13.4961 10.2734 -13.6621 C 11.7871 -14.043 13.3008 -13.9258 14.7852 -12.9199 L 14.1602 -11.3379 C 13.9258 -10.752 13.9453 -10.2734 14.1797 -9.83398 L 3.01758 0.439453 C 2.08008 1.30859 1.97266 2.25586 2.83203 3.11523 Z M 10.6738 -15.1465 C 13.3398 -17.1387 16.6504 -16.8262 19.0527 -14.4141 L 21.6797 -11.8066 C 21.9141 -11.5723 21.9434 -11.3867 21.8848 -11.0938 L 21.5039 -9.53125 L 23.0762 -7.95898 L 24.043 -8.04688 C 24.3262 -8.07617 24.4141 -8.05664 24.6387 -7.83203 L 25.2637 -7.20703 L 22.5098 -4.46289 L 21.8848 -5.07812 C 21.6602 -5.30273 21.6406 -5.40039 21.6699 -5.68359 L 21.7578 -6.64062 L 20.1953 -8.20312 L 18.5742 -7.89062 C 18.291 -7.83203 18.1445 -7.83203 17.9102 -8.07617 L 15.7324 -10.2539 C 15.5078 -10.4883 15.4785 -10.625 15.6055 -10.9473 L 16.5527 -13.2227 C 14.9512 -14.7559 12.8418 -15.6055 10.8008 -14.9512 C 10.7129 -14.9219 10.6445 -14.9414 10.6152 -14.9805 C 10.5859 -15.0293 10.5859 -15.0781 10.6738 -15.1465 Z M 4.10156 2.41211 C 3.61328 1.91406 3.78906 1.61133 4.12109 1.30859 L 15.0781 -8.80859 L 16.3086 -7.57812 L 6.15234 3.34961 C 5.84961 3.68164 5.46875 3.7793 5.06836 3.37891 Z"/>
  </g>
  <text style="stroke:none;fill:black;font-family:-apple-system,&quot;SF Pro Display&quot;,&quot;SF Pro Text&quot;,Helvetica,sans-serif;font-weight:bold;" transform="matrix(1 0 0 1 1289 1953)">Exporting</text>
  <text style="stroke:none;fill:black;font-family:-apple-system,&quot;SF Pro Display&quot;,&quot;SF Pro Text&quot;,Helvetica,sans-serif;" transform="matrix(1 0 0 1 1289 1971)">Symbols should be outlined when exporting to ensure the</text>
  <text style="stroke:none;fill:black;font-family:-apple-system,&quot;SF Pro Display&quot;,&quot;SF Pro Text&quot;,Helvetica,sans-serif;" transform="matrix(1 0 0 1 1289 1989)">design is preserved when submitting to Xcode.</text>
  <text id="template-version" style="stroke:none;fill:black;font-family:-apple-system,&quot;SF Pro Display&quot;,&quot;SF Pro Text&quot;,Helvetica,sans-serif;text-anchor:end;" transform="matrix(1 0 0 1 3036 1933)">Template v.1.0</text>
  <text style="stroke:none;fill:black;font-family:-apple-system,&quot;SF Pro Display&quot;,&quot;SF Pro Text&quot;,Helvetica,sans-serif;text-anchor:end;" transform="matrix(1 0 0 1 3036 1951)">Generated from arrowtriangle.down.fill</text>
  <text style="stroke:none;fill:black;font-family:-apple-system,&quot;SF Pro Display&quot;,&quot;SF Pro Text&quot;,Helvetica,sans-serif;text-anchor:end;" transform="matrix(1 0 0 1 3036 1969)">Typeset at 100 points</text>
  <text style="stroke:none;fill:black;font-family:-apple-system,&quot;SF Pro Display&quot;,&quot;SF Pro Text&quot;,Helvetica,sans-serif;" transform="matrix(1 0 0 1 263 726)">Small</text>
  <text style="stroke:none;fill:black;font-family:-apple-system,&quot;SF Pro Display&quot;,&quot;SF Pro Text&quot;,Helvetica,sans-serif;" transform="matrix(1 0 0 1 263 1156)">Medium</text>
  <text style="stroke:none;fill:black;font-family:-apple-system,&quot;SF Pro Display&quot;,&quot;SF Pro Text&quot;,Helvetica,sans-serif;" transform="matrix(1 0 0 1 263 1586)">Large</text>
 </g>
 <g id="Guides">
  <g id="H-reference" style="fill:#27AAE1;stroke:none;" transform="matrix(1 0 0 1 339 696)">
   <path d="M 54.9316 0 L 57.666 0 L 30.5664 -70.459 L 28.0762 -70.459 L 0.976562 0 L 3.66211 0 L 12.9395 -24.4629 L 45.7031 -24.4629 Z M 29.1992 -67.0898 L 29.4434 -67.0898 L 44.8242 -26.709 L 13.8184 -26.709 Z"/>
  </g>
  <line id="Baseline-S" style="fill:none;stroke:#27AAE1;opacity:1;stroke-width:0.577;" x1="263" x2="3036" y1="696" y2="696"/>
  <line id="Capline-S" style="fill:none;stroke:#27AAE1;opacity:1;stroke-width:0.577;" x1="263" x2="3036" y1="625.541" y2="625.541"/>
  <g id="H-reference" style="fill:#27AAE1;stroke:none;" transform="matrix(1 0 0 1 339 1126)">
   <path d="M 54.9316 0 L 57.666 0 L 30.5664 -70.459 L 28.0762 -70.459 L 0.976562 0 L 3.66211 0 L 12.9395 -24.4629 L 45.7031 -24.4629 Z M 29.1992 -67.0898 L 29.4434 -67.0898 L 44.8242 -26.709 L 13.8184 -26.709 Z"/>
  </g>
  <line id="Baseline-M" style="fill:none;stroke:#27AAE1;opacity:1;stroke-width:0.577;" x1="263" x2="3036" y1="1126" y2="1126"/>
  <line id="Capline-M" style="fill:none;stroke:#27AAE1;opacity:1;stroke-width:0.577;" x1="263" x2="3036" y1="1055.54" y2="1055.54"/>
  <g id="H-reference" style="fill:#27AAE1;stroke:none;" transform="matrix(1 0 0 1 339 1556)">
   <path d="M 54.9316 0 L 57.666 0 L 30.5664 -70.459 L 28.0762 -70.459 L 0.976562 0 L 3.66211 0 L 12.9395 -24.4629 L 45.7031 -24.4629 Z M 29.1992 -67.0898 L 29.4434 -67.0898 L 44.8242 -26.709 L 13.8184 -26.709 Z"/>
  </g>
  <line id="Baseline-L" style="fill:none;stroke:#27AAE1;opacity:1;stroke-width:0.577;" x1="263" x2="3036" y1="1556" y2="1556"/>
  <line id="Capline-L" style="fill:none;stroke:#27AAE1;opacity:1;stroke-width:0.577;" x1="263" x2="3036" y1="1485.54" y2="1485.54"/>
  <rect height="119.336" id="left-margin" style="fill:#00AEEF;stroke:none;opacity:0.4;" width="9.96094" x="1401.04" y="1030.79"/>
  <rect height="119.336" id="right-margin" style="fill:#00AEEF;stroke:none;opacity:0.4;" width="9.96094" x="1488.69" y="1030.79"/>
 </g>
 <g id="Symbols">
  <g id="Black-L" transform="matrix(1 0 0 1 2868.8 1556)">
   <path d="M 116.309 -76.1719 C 116.309 -82.666 111.279 -88.4766 102.734 -88.4766 L 26.4648 -88.4766 C 17.9199 -88.4766 12.8906 -82.7148 12.8906 -76.1719 C 12.8906 -72.998 14.1113 -70.2637 16.1133 -66.1133 L 51.4648 7.95898 C 54.5898 14.4531 58.9355 17.9199 64.5996 17.9199 C 70.2637 17.9199 74.6094 14.4531 77.6855 7.95898 L 113.086 -66.1133 C 115.088 -70.2637 116.309 -72.998 116.309 -76.1719 Z"/>
  </g>
  <g id="Heavy-L" transform="matrix(1 0 0 1 2572.53 1556)">
   <path d="M 115.43 -76.9531 C 115.43 -82.959 110.84 -87.9883 103.125 -87.9883 L 25.1953 -87.9883 C 17.4805 -87.9883 12.8906 -82.959 12.8906 -77.002 C 12.8906 -74.0234 14.0625 -71.5332 15.8691 -67.7734 L 52.3438 8.39844 C 55.2734 14.502 59.082 17.4805 64.1602 17.4805 C 69.2383 17.4805 73.0469 14.502 75.9766 8.39844 L 112.5 -67.7734 C 114.258 -71.4844 115.43 -74.0234 115.43 -76.9531 Z"/>
  </g>
  <g id="Bold-L" transform="matrix(1 0 0 1 2276.31 1556)">
   <path d="M 114.453 -77.8809 C 114.453 -83.252 110.352 -87.4512 103.564 -87.4512 L 23.7793 -87.4512 C 16.9922 -87.4512 12.8906 -83.252 12.8906 -77.9297 C 12.8906 -75.1953 14.0137 -72.9004 15.5762 -69.6289 L 53.3203 8.88672 C 56.0547 14.502 59.3262 16.9922 63.6719 16.9922 C 68.0664 16.9922 71.2891 14.502 74.0234 8.88672 L 111.768 -69.6289 C 113.379 -72.9004 114.453 -75.1465 114.453 -77.8809 Z"/>
  </g>
  <g id="Semibold-L" transform="matrix(1 0 0 1 1979.94 1556)">
   <path d="M 113.77 -78.5156 C 113.77 -83.4473 110.01 -87.0605 103.906 -87.0605 L 22.8027 -87.1094 C 16.6504 -87.1094 12.8906 -83.4961 12.8906 -78.5156 C 12.8906 -75.9766 13.9648 -73.877 15.3809 -70.8984 L 54.0039 9.17969 C 56.5918 14.502 59.4727 16.6504 63.3301 16.6504 C 67.2363 16.6504 70.1172 14.502 72.6562 9.17969 L 111.279 -70.8984 C 112.744 -73.8281 113.77 -75.9277 113.77 -78.5156 Z"/>
  </g>
  <g id="Medium-L" transform="matrix(1 0 0 1 1683.47 1556)">
   <path d="M 113.281 -78.9551 C 113.281 -83.5938 109.766 -86.7676 104.15 -86.7676 L 22.0215 -86.8164 C 16.4062 -86.8164 12.8906 -83.6426 12.8906 -79.0039 C 12.8906 -76.5625 13.916 -74.6094 15.2344 -71.8262 L 54.541 9.47266 C 56.9824 14.502 59.5703 16.4062 63.0859 16.4062 C 66.6016 16.4062 69.1895 14.502 71.6309 9.47266 L 110.938 -71.8262 C 112.256 -74.5605 113.281 -76.5137 113.281 -78.9551 Z"/>
  </g>
  <g id="Regular-L" transform="matrix(1 0 0 1 1387.1 1556)">
   <path d="M 112.598 -79.5898 C 112.598 -83.7891 109.424 -86.4258 104.443 -86.4258 L 21.0938 -86.4746 C 16.0645 -86.4746 12.8906 -83.8379 12.8906 -79.6387 C 12.8906 -77.3438 13.8672 -75.5859 15.0879 -73.0957 L 55.1758 9.76562 C 57.5195 14.502 59.7168 16.0645 62.7441 16.0645 C 65.8203 16.0645 68.0176 14.502 70.3125 9.76562 L 110.449 -73.0957 C 111.621 -75.5371 112.598 -77.2949 112.598 -79.5898 Z"/>
  </g>
  <g id="Light-L" transform="matrix(1 0 0 1 1090.71 1556)">
   <path d="M 111.963 -80.3711 C 111.963 -83.9844 109.277 -86.2793 104.932 -86.2793 L 19.9219 -86.2793 C 15.5762 -86.2793 12.8906 -84.0332 12.8906 -80.4199 C 12.8906 -78.5156 13.6719 -77.0996 14.7461 -74.9023 L 56.0059 10.6445 C 57.8613 14.4531 59.7656 15.918 62.4023 15.918 C 65.0879 15.918 66.9922 14.4531 68.8477 10.6445 L 110.107 -74.9023 C 111.182 -77.0508 111.963 -78.4668 111.963 -80.3711 Z"/>
  </g>
  <g id="Thin-L" transform="matrix(1 0 0 1 794.435 1556)">
   <path d="M 111.084 -81.4453 C 111.084 -84.2773 109.033 -86.084 105.615 -86.084 L 18.3594 -86.084 C 14.8926 -86.084 12.8906 -84.2773 12.8906 -81.4941 C 12.8906 -80.0781 13.4277 -79.0527 14.3066 -77.2461 L 57.0801 11.8164 C 58.3496 14.3555 59.8145 15.6738 61.9629 15.6738 C 64.1113 15.6738 65.625 14.3555 66.8945 11.8164 L 109.668 -77.2461 C 110.547 -79.0527 111.084 -80.0293 111.084 -81.4453 Z"/>
  </g>
  <g id="Ultralight-L" transform="matrix(1 0 0 1 497.944 1556)">
   <path d="M 110.645 -82.0312 C 110.645 -84.375 108.936 -85.9863 105.957 -85.9863 L 17.5781 -85.9375 C 14.5996 -85.9375 12.8906 -84.375 12.8906 -82.0312 C 12.8906 -80.8594 13.3301 -80.0781 14.0625 -78.4668 L 57.6172 12.4023 C 58.5938 14.3555 59.8633 15.5762 61.7676 15.5762 C 63.623 15.5762 64.8926 14.3555 65.8691 12.4023 L 109.424 -78.4668 C 110.205 -80.0781 110.645 -80.8594 110.645 -82.0312 Z"/>
  </g>
  <g id="Black-M" transform="matrix(1 0 0 1 2882.96 1126)">
   <path d="M 90.918 -66.3086 C 90.918 -71.7773 86.7188 -77.0508 79.2969 -77.0508 L 21.582 -77.0508 C 14.1602 -77.0508 9.96094 -71.7773 9.96094 -66.3086 C 9.96094 -63.7207 10.8887 -61.4746 12.5977 -57.9102 L 39.1113 -1.85547 C 41.5527 3.27148 45.4102 6.49414 50.4395 6.49414 C 55.4688 6.49414 59.3262 3.27148 61.7676 -1.85547 L 88.2812 -57.9102 C 89.9902 -61.4746 90.918 -63.7207 90.918 -66.3086 Z"/>
  </g>
  <g id="Heavy-M" transform="matrix(1 0 0 1 2586.64 1126)">
   <path d="M 90.1367 -66.9922 C 90.1367 -71.9727 86.2793 -76.5625 79.6387 -76.5625 L 20.5078 -76.5625 C 13.8184 -76.5625 9.96094 -72.0215 9.96094 -66.9922 C 9.96094 -64.5508 10.8887 -62.4512 12.4023 -59.2285 L 39.8926 -1.61133 C 42.2363 3.27148 45.6055 6.05469 50.0488 6.05469 C 54.4922 6.05469 57.9102 3.27148 60.2539 -1.61133 L 87.6953 -59.2285 C 89.209 -62.4512 90.1367 -64.5508 90.1367 -66.9922 Z"/>
  </g>
  <g id="Bold-M" transform="matrix(1 0 0 1 2290.37 1126)">
   <path d="M 89.2578 -67.7246 C 89.2578 -72.2656 85.791 -76.0254 79.9805 -76.0254 L 19.2871 -76.0254 C 13.4277 -76.0254 9.96094 -72.2656 9.96094 -67.7246 C 9.96094 -65.4785 10.8398 -63.5742 12.207 -60.7422 L 40.7227 -1.36719 C 42.9199 3.32031 45.8008 5.56641 49.6094 5.56641 C 53.418 5.56641 56.2988 3.32031 58.5449 -1.36719 L 87.0117 -60.7422 C 88.3789 -63.5254 89.2578 -65.4297 89.2578 -67.7246 Z"/>
  </g>
  <g id="Semibold-M" transform="matrix(1 0 0 1 1993.95 1126)">
   <path d="M 88.6719 -68.2129 C 88.6719 -72.4121 85.4492 -75.6348 80.2246 -75.6348 L 18.4082 -75.6836 C 13.1836 -75.6836 9.96094 -72.4609 9.96094 -68.2617 C 9.96094 -66.1133 10.8398 -64.3066 12.0605 -61.7676 L 41.2598 -1.17188 C 43.457 3.32031 45.9473 5.22461 49.3164 5.22461 C 52.6855 5.22461 55.1758 3.32031 57.373 -1.17188 L 86.5723 -61.7676 C 87.793 -64.3066 88.6719 -66.0645 88.6719 -68.2129 Z"/>
  </g>
  <g id="Medium-M" transform="matrix(1 0 0 1 1697.46 1126)">
   <path d="M 88.2324 -68.6035 C 88.2324 -72.5586 85.2051 -75.3418 80.3711 -75.3418 L 17.7734 -75.3906 C 12.9883 -75.3906 9.96094 -72.6074 9.96094 -68.6523 C 9.96094 -66.6016 10.8398 -64.8926 11.9629 -62.5488 L 41.6992 -1.02539 C 43.8477 3.32031 46.0449 4.98047 49.0723 4.98047 C 52.0996 4.98047 54.3457 3.32031 56.4941 -1.02539 L 86.2305 -62.5488 C 87.3535 -64.8438 88.2324 -66.5527 88.2324 -68.6035 Z"/>
  </g>
  <g id="Regular-M" transform="matrix(1 0 0 1 1401.04 1126)">
   <path d="M 87.6465 -69.1406 C 87.6465 -72.7539 84.8633 -75 80.6152 -75 L 16.9434 -75.0488 C 12.6953 -75.0488 9.96094 -72.8027 9.96094 -69.1895 C 9.96094 -67.2363 10.8398 -65.625 11.8164 -63.5742 L 42.2852 -0.830078 C 44.3359 3.32031 46.1914 4.63867 48.7793 4.63867 C 51.3672 4.63867 53.2715 3.32031 55.3223 -0.830078 L 85.7422 -63.5742 C 86.7676 -65.5762 87.6465 -67.1875 87.6465 -69.1406 Z"/>
  </g>
  <g id="Light-M" transform="matrix(1 0 0 1 1104.65 1126)">
   <path d="M 87.0117 -69.873 C 87.0117 -72.9004 84.7168 -74.8535 81.0547 -74.8535 L 15.918 -74.8535 C 12.2559 -74.8535 9.96094 -72.9492 9.96094 -69.9219 C 9.96094 -68.2617 10.6445 -66.9922 11.5234 -65.1855 L 43.0176 -0.0488281 C 44.6777 3.27148 46.2402 4.49219 48.4863 4.49219 C 50.7324 4.49219 52.3438 3.27148 54.0039 -0.0488281 L 85.4492 -65.1855 C 86.3281 -66.9434 87.0117 -68.2129 87.0117 -69.873 Z"/>
  </g>
  <g id="Thin-M" transform="matrix(1 0 0 1 808.327 1126)">
   <path d="M 86.2305 -70.8496 C 86.2305 -73.1445 84.5215 -74.6582 81.6895 -74.6582 L 14.5508 -74.6582 C 11.6699 -74.6582 9.96094 -73.1934 9.96094 -70.8496 C 9.96094 -69.6289 10.4492 -68.75 11.1328 -67.2852 L 43.9941 0.976562 C 45.0684 3.22266 46.3379 4.29688 48.0957 4.29688 C 49.8535 4.29688 51.123 3.22266 52.2461 0.976562 L 85.0586 -67.2852 C 85.7422 -68.75 86.2305 -69.6289 86.2305 -70.8496 Z"/>
  </g>
  <g id="Ultralight-M" transform="matrix(1 0 0 1 511.811 1126)">
   <path d="M 85.8398 -71.3379 C 85.8398 -73.291 84.4238 -74.5605 81.9824 -74.5605 L 13.8184 -74.5605 C 11.377 -74.5605 9.96094 -73.291 9.96094 -71.3379 C 9.96094 -70.3613 10.3027 -69.6777 10.9375 -68.3594 L 44.4824 1.51367 C 45.3125 3.17383 46.3379 4.19922 47.9004 4.19922 C 49.4629 4.19922 50.4883 3.17383 51.3184 1.51367 L 84.8633 -68.3594 C 85.498 -69.6777 85.8398 -70.3613 85.8398 -71.3379 Z"/>
  </g>
  <g id="Black-S" transform="matrix(1 0 0 1 2893.9 696)">
   <path d="M 71.1914 -59.6191 C 71.1914 -63.8672 67.9199 -67.9688 62.1582 -67.9688 L 16.8457 -67.9688 C 11.084 -67.9688 7.8125 -63.8672 7.8125 -59.6191 C 7.8125 -57.6172 8.54492 -55.8594 9.86328 -53.0762 L 30.7129 -9.08203 C 32.6172 -5.07812 35.5957 -2.58789 39.502 -2.58789 C 43.4082 -2.58789 46.3867 -5.07812 48.291 -9.08203 L 69.1406 -53.0762 C 70.459 -55.8594 71.1914 -57.6172 71.1914 -59.6191 Z"/>
  </g>
  <g id="Heavy-S" transform="matrix(1 0 0 1 2597.46 696)">
   <path d="M 70.6543 -60.0586 C 70.6543 -64.0137 67.627 -67.627 62.3535 -67.627 L 16.1133 -67.627 C 10.8887 -67.627 7.8125 -64.0137 7.8125 -60.0586 C 7.8125 -58.1055 8.54492 -56.4453 9.76562 -53.9062 L 31.2012 -8.98438 C 33.0566 -5.07812 35.7422 -2.88086 39.2578 -2.88086 C 42.7246 -2.88086 45.4102 -5.07812 47.2656 -8.98438 L 68.7012 -53.9062 C 69.9219 -56.4453 70.6543 -58.1055 70.6543 -60.0586 Z"/>
  </g>
  <g id="Bold-S" transform="matrix(1 0 0 1 2301.04 696)">
   <path d="M 70.0684 -60.5469 C 70.0684 -64.209 67.2363 -67.1875 62.5488 -67.1875 L 15.332 -67.2363 C 10.6445 -67.2363 7.8125 -64.209 7.8125 -60.5469 C 7.8125 -58.6914 8.54492 -57.1289 9.66797 -54.8828 L 31.7383 -8.88672 C 33.5938 -5.0293 35.8887 -3.27148 38.9648 -3.27148 C 41.9922 -3.27148 44.2871 -5.0293 46.1426 -8.88672 L 68.2617 -54.8828 C 69.3359 -57.1289 70.0684 -58.6914 70.0684 -60.5469 Z"/>
  </g>
  <g id="Semibold-S" transform="matrix(1 0 0 1 2004.52 696)">
   <path d="M 69.6777 -60.8398 C 69.6777 -64.3066 66.9922 -66.9434 62.6953 -66.9434 L 14.7949 -66.9434 C 10.4492 -66.9434 7.8125 -64.3555 7.8125 -60.8887 C 7.8125 -59.082 8.54492 -57.6172 9.57031 -55.5176 L 32.1289 -8.78906 C 33.9355 -5.0293 35.9863 -3.51562 38.7207 -3.51562 C 41.4551 -3.51562 43.5059 -5.0293 45.3613 -8.78906 L 67.9199 -55.5176 C 68.8965 -57.5684 69.6777 -59.082 69.6777 -60.8398 Z"/>
  </g>
  <g id="Medium-S" transform="matrix(1 0 0 1 1707.98 696)">
   <path d="M 69.3359 -61.1328 C 69.3359 -64.4043 66.7969 -66.6992 62.793 -66.6992 L 14.3555 -66.748 C 10.3516 -66.748 7.8125 -64.4531 7.8125 -61.1328 C 7.8125 -59.375 8.54492 -57.959 9.52148 -56.0059 L 32.4219 -8.74023 C 34.2285 -4.98047 36.084 -3.71094 38.5742 -3.71094 C 41.0645 -3.71094 42.9688 -4.98047 44.7754 -8.74023 L 67.6758 -56.0059 C 68.6035 -57.9102 69.3359 -59.375 69.3359 -61.1328 Z"/>
  </g>
  <g id="Regular-S" transform="matrix(1 0 0 1 1411.47 696)">
   <path d="M 68.9453 -61.4258 C 68.9453 -64.5508 66.6016 -66.4551 62.9395 -66.4551 L 13.8184 -66.5039 C 10.2051 -66.5039 7.8125 -64.5996 7.8125 -61.4746 C 7.8125 -59.7656 8.54492 -58.3984 9.42383 -56.6406 L 32.7637 -8.69141 C 34.5703 -4.98047 36.1816 -3.90625 38.3789 -3.90625 C 40.5762 -3.90625 42.1875 -4.98047 43.9941 -8.69141 L 67.334 -56.6406 C 68.2129 -58.3496 68.9453 -59.7168 68.9453 -61.4258 Z"/>
  </g>
  <g id="Light-S" transform="matrix(1 0 0 1 1115.02 696)">
   <path d="M 68.4082 -62.1094 C 68.4082 -64.6973 66.4551 -66.3086 63.3789 -66.3086 L 12.8906 -66.3574 C 9.76562 -66.3574 7.8125 -64.7461 7.8125 -62.1094 C 7.8125 -60.6934 8.39844 -59.6191 9.17969 -58.0566 L 33.4473 -7.95898 C 34.8633 -5.0293 36.2305 -4.05273 38.1348 -4.05273 C 39.9902 -4.05273 41.3574 -5.0293 42.8223 -7.95898 L 67.0898 -58.0566 C 67.8223 -59.5703 68.4082 -60.6934 68.4082 -62.1094 Z"/>
  </g>
  <g id="Thin-S" transform="matrix(1 0 0 1 818.654 696)">
   <path d="M 67.7246 -62.9395 C 67.7246 -64.8926 66.2598 -66.1621 63.8672 -66.1621 L 11.6699 -66.1621 C 9.27734 -66.1621 7.8125 -64.8926 7.8125 -62.9395 C 7.8125 -61.9141 8.25195 -61.1816 8.83789 -59.9609 L 34.2773 -7.08008 C 35.2539 -5.07812 36.2793 -4.24805 37.793 -4.24805 C 39.2578 -4.24805 40.2832 -5.07812 41.2598 -7.08008 L 66.748 -59.9609 C 67.334 -61.1328 67.7246 -61.9141 67.7246 -62.9395 Z"/>
  </g>
  <g id="Ultralight-S" transform="matrix(1 0 0 1 522.113 696)">
   <path d="M 67.3828 -63.3789 C 67.3828 -64.9902 66.1621 -66.0645 64.1602 -66.0645 L 11.0352 -66.0645 C 8.98438 -66.0645 7.8125 -65.0391 7.8125 -63.3789 C 7.8125 -62.5488 8.10547 -61.9629 8.64258 -60.8887 L 34.7168 -6.5918 C 35.4492 -5.12695 36.3281 -4.3457 37.5977 -4.3457 C 38.8672 -4.3457 39.7461 -5.12695 40.4785 -6.5918 L 66.5527 -60.8887 C 67.041 -61.9629 67.3828 -62.5488 67.3828 -63.3789 Z"/>
  </g>
 </g>
</svg>
